<svg width="20" height="19" viewBox="0 0 20 19" fill="none" xmlns="http://www.w3.org/2000/svg">
<path d="M10 15.6354C10.3297 15.6354 10.6123 15.9304 10.6123 16.2741V18.1638C10.6123 18.5074 10.3297 18.8024 10 18.8024C9.67033 18.8024 9.3877 18.5074 9.3877 18.1638V16.2741C9.3877 15.9304 9.67033 15.6354 10 15.6354ZM4.54199 13.8522C4.81146 13.5911 5.24221 13.5911 5.51172 13.8522C5.78126 14.1136 5.78126 14.5322 5.51172 14.7936L4.0293 16.2311C3.7598 16.4923 3.32905 16.4923 3.05957 16.2311C2.79003 15.9697 2.79003 15.5511 3.05957 15.2897L4.54199 13.8522ZM14.4883 13.8522C14.7309 13.5911 15.1616 13.5911 15.458 13.8522L16.9404 15.2897C17.21 15.5511 17.21 15.9697 16.9404 16.2311C16.671 16.4923 16.2402 16.4923 15.9707 16.2311L14.4883 14.7936C14.2187 14.5322 14.2187 14.1136 14.4883 13.8522ZM10 4.55243C11.3963 4.55243 12.6856 5.07684 13.5986 5.95184C14.5116 6.80184 15.1016 8.00246 15.1016 9.30243C15.1015 10.6022 14.5114 11.8021 13.5986 12.652C12.6856 13.502 11.3963 14.0524 10 14.0524C8.60365 14.0524 7.31436 13.527 6.40137 12.652C5.48857 11.8021 4.89854 10.6022 4.89844 9.30243C4.89844 8.00246 5.46156 6.80184 6.40137 5.95184C7.31436 5.10184 8.60365 4.55243 10 4.55243ZM2.60742 8.90594C2.96157 8.90607 3.26542 9.18019 3.26562 9.49969C3.26562 9.81933 2.96169 10.0933 2.60742 10.0934H0.658203C0.303829 10.0934 0 9.81941 0 9.49969C0.000205889 9.18012 0.303949 8.90594 0.658203 8.90594H2.60742ZM19.3418 8.90594C19.6961 8.90594 19.9998 9.18012 20 9.49969C20 9.81941 19.6962 10.0934 19.3418 10.0934H17.3926C17.0383 10.0933 16.7344 9.81933 16.7344 9.49969C16.7346 9.18019 17.0384 8.90607 17.3926 8.90594H19.3418ZM3.05957 2.76923C3.32909 2.50787 3.75976 2.50789 4.0293 2.76923L5.51172 4.20673C5.78126 4.46813 5.78126 4.88673 5.51172 5.14813C5.26915 5.40901 4.83832 5.4091 4.54199 5.14813L3.05957 3.70966C2.79007 3.44825 2.79004 3.03061 3.05957 2.76923ZM15.9707 2.76923C16.2402 2.50789 16.6709 2.50787 16.9404 2.76923C17.21 3.03061 17.2099 3.44825 16.9404 3.70966L15.458 5.14813C15.1886 5.40909 14.7577 5.40902 14.4883 5.14813C14.2187 4.88673 14.2187 4.46813 14.4883 4.20673L15.9707 2.76923ZM10 0.197937C10.3297 0.197937 10.6123 0.49294 10.6123 0.836609V2.72626C10.6123 3.06993 10.3297 3.36493 10 3.36493C9.67033 3.36493 9.3877 3.06993 9.3877 2.72626V0.836609C9.3877 0.49294 9.67033 0.197937 10 0.197937Z" fill="white"/>
</svg>
